<?xml version="1.0" standalone="no"?>
<!DOCTYPE svg PUBLIC "-//W3C//DTD SVG 20010904//EN"
 "http://www.w3.org/TR/2001/REC-SVG-20010904/DTD/svg10.dtd">
<svg version="1.0" xmlns="http://www.w3.org/2000/svg"
 width="397.000000pt" height="397.000000pt" viewBox="0 0 397.000000 397.000000"
 preserveAspectRatio="xMidYMid meet">

<g transform="translate(0.000000,397.000000) scale(0.100000,-0.100000)"
fill="#000000" stroke="none">
<path d="M2059 3852 c-21 -14 -59 -24 -59 -15 0 2 10 8 23 12 20 8 19 9 -10 9
-18 -1 -34 -7 -37 -15 -6 -16 -36 -18 -36 -2 0 8 -4 8 -12 1 -14 -11 -18 -12
-44 -12 -8 0 -12 -4 -9 -10 3 -5 2 -10 -2 -10 -13 0 -113 -102 -113 -114 0 -6
11 0 23 14 51 56 65 64 84 49 17 -13 17 -12 4 4 -13 16 -13 20 0 28 8 4 23 6
34 3 15 -4 16 -3 6 4 -7 5 -9 12 -5 14 14 8 108 4 122 -5 7 -5 12 -4 12 3 0 6
5 8 12 4 7 -4 8 -3 4 4 -11 18 69 15 104 -3 17 -9 46 -39 65 -68 19 -28 35
-44 35 -35 0 27 -11 48 -26 48 -8 0 -14 5 -14 11 0 5 6 7 13 3 6 -4 10 -5 7
-1 -3 3 -8 6 -12 7 -4 1 -23 16 -43 34 -48 45 -96 59 -126 38z m38 -8 c-3 -3
-12 -4 -19 -1 -8 3 -5 6 6 6 11 1 17 -2 13 -5z"/>
<path d="M2030 3766 c0 -2 8 -10 18 -17 15 -13 16 -12 3 4 -13 16 -21 21 -21
13z"/>
<path d="M2266 3694 c-3 -9 1 -25 9 -37 8 -12 15 -16 15 -10 0 7 -4 15 -10 18
-5 3 -10 11 -10 17 0 7 6 6 15 -2 8 -7 15 -16 15 -21 0 -9 21 -38 53 -71 9
-10 17 -20 17 -23 0 -3 0 -8 0 -12 0 -4 5 -2 12 5 9 9 20 4 50 -25 21 -20 38
-32 38 -26 0 6 -7 16 -15 23 -24 20 -10 23 22 5 l28 -17 -25 21 c-14 11 -41
25 -61 31 -36 10 -74 42 -63 52 3 4 -4 9 -15 13 -11 3 -30 22 -41 41 -25 39
-26 40 -34 18z"/>
<path d="M1621 3567 c-54 -59 -64 -72 -28 -37 32 30 63 55 70 56 41 4 42 4 28
13 -10 7 -8 12 10 25 15 10 20 19 14 25 -7 7 -40 -23 -94 -82z"/>
<path d="M1634 3548 l-19 -23 23 19 c21 18 27 26 19 26 -2 0 -12 -10 -23 -22z"/>
<path d="M2430 3495 c13 -14 26 -25 28 -25 3 0 -5 11 -18 25 -13 14 -26 25
-28 25 -3 0 5 -11 18 -25z"/>
<path d="M2490 3497 c0 -2 17 -16 38 -30 20 -14 52 -39 70 -57 17 -17 32 -27
32 -21 0 5 -16 22 -35 37 -19 14 -32 31 -28 38 3 6 3 8 -2 4 -4 -4 -23 2 -42
13 -18 11 -33 19 -33 16z"/>
<path d="M2580 3454 c0 -2 18 -13 40 -24 21 -11 61 -41 87 -67 26 -26 51 -46
55 -45 9 2 61 -65 80 -103 9 -16 13 -37 11 -45 -4 -12 -3 -12 5 -1 8 10 13 8
26 -10 9 -13 16 -33 16 -44 0 -15 2 -17 9 -6 7 11 12 7 24 -15 29 -58 30 -74
6 -100 -12 -13 -28 -24 -36 -24 -7 0 -13 -3 -13 -8 0 -4 -24 -22 -53 -39 -29
-17 -61 -42 -72 -54 -19 -22 -18 -22 15 2 19 14 46 32 60 39 l25 12 -21 -20
c-24 -22 -85 -57 -96 -54 -5 1 -29 -14 -54 -33 -32 -25 -52 -34 -66 -29 -15 4
-18 3 -13 -7 6 -9 3 -10 -10 -5 -18 7 -201 -72 -190 -82 3 -3 -1 -12 -7 -21
-7 -9 -1 -7 12 5 35 29 95 64 110 64 8 0 4 -11 -11 -27 l-24 -28 25 22 c26 23
112 65 118 58 3 -2 -20 -31 -49 -63 -41 -46 -53 -67 -53 -93 -1 -33 -2 -34
-38 -31 -31 3 -38 0 -50 -25 -12 -24 -18 -28 -51 -25 -33 3 -37 1 -37 -21 0
-27 -48 -57 -60 -37 -4 6 -15 -2 -28 -20 -18 -23 -30 -30 -57 -30 -19 0 -35 5
-35 10 0 14 -31 46 -50 52 -10 3 -3 10 20 22 19 9 44 29 55 43 18 25 16 25
-29 -7 -27 -19 -54 -43 -61 -54 -8 -10 -18 -16 -23 -12 -5 3 -35 -17 -67 -44
-33 -28 -63 -50 -67 -50 -4 0 -8 -5 -8 -11 0 -8 5 -7 15 1 26 21 26 6 0 -22
-13 -14 -22 -28 -20 -30 2 -2 -9 -29 -24 -60 -28 -54 -27 -88 1 -88 6 0 4 8
-5 18 -13 14 -13 20 -3 35 21 27 26 20 26 -34 0 -31 -4 -48 -10 -44 -5 3 -10
1 -10 -4 0 -6 4 -11 8 -11 5 0 7 -13 4 -29 -2 -16 1 -32 7 -35 12 -8 12 -10
16 117 2 59 8 96 19 112 18 28 21 39 6 30 -6 -3 -7 1 -4 9 3 9 10 16 14 16 4
0 24 16 44 36 39 39 59 41 154 14 37 -11 45 -10 61 4 9 9 25 16 34 16 9 0 17
4 17 10 0 5 18 19 40 30 22 11 40 27 40 35 0 10 11 15 34 15 28 0 35 4 40 25
5 21 12 25 46 25 34 0 42 4 55 30 18 35 19 44 4 34 -7 -4 -10 -1 -7 7 3 8 10
14 17 14 7 0 19 11 26 25 8 14 14 21 15 15 0 -5 11 7 25 28 14 20 23 42 20 47
-3 6 0 10 8 10 8 0 20 7 27 15 7 8 20 15 30 15 9 0 37 16 61 35 24 19 48 35
52 35 5 0 20 9 34 20 14 11 30 17 36 13 6 -3 7 -1 3 5 -4 7 -1 12 8 12 9 0 16
5 16 10 0 6 7 10 15 10 9 0 12 -6 9 -17 -5 -15 -4 -16 5 -2 16 24 25 115 12
123 -17 11 -13 26 7 26 13 0 11 5 -10 24 -16 13 -28 28 -28 34 0 6 -9 17 -20
25 -11 8 -17 17 -13 21 4 3 -16 30 -44 59 -28 28 -75 77 -104 107 -55 57 -118
102 -156 112 -13 3 -23 4 -23 2z m320 -277 c0 -6 -9 -2 -20 8 -11 10 -20 23
-20 28 0 6 9 2 20 -8 11 -10 20 -23 20 -28z m60 -207 c0 -5 -8 -10 -17 -10
-15 0 -16 2 -3 10 19 12 20 12 20 0z m-395 -220 c-3 -5 -12 -10 -18 -10 -7 0
-6 4 3 10 19 12 23 12 15 0z m-526 -345 c-19 -19 -36 -30 -38 -24 -4 14 39 59
57 59 9 0 2 -13 -19 -35z m116 25 c3 -5 2 -10 -4 -10 -5 0 -13 5 -16 10 -3 6
-2 10 4 10 5 0 13 -4 16 -10z"/>
<path d="M1552 3370 c-13 -16 -29 -29 -35 -27 -7 1 -11 -4 -9 -10 1 -7 -2 -13
-8 -13 -5 0 -10 -5 -10 -12 0 -6 -11 -25 -24 -42 -29 -39 -71 -120 -57 -112 5
4 20 25 33 47 19 34 24 37 29 22 6 -13 8 -10 8 12 1 22 16 49 51 90 28 33 50
63 50 67 0 12 -3 10 -28 -22z"/>
<path d="M1542 3260 c-7 -11 -12 -25 -12 -32 0 -7 7 0 15 16 18 33 15 45 -3
16z"/>
<path d="M1420 3125 c0 -8 2 -15 4 -15 2 0 6 7 10 15 3 8 1 15 -4 15 -6 0 -10
-7 -10 -15z"/>
<path d="M1377 3100 c-12 -20 -17 -40 -12 -57 4 -16 0 -34 -10 -49 -9 -14 -14
-28 -11 -33 3 -4 1 -22 -4 -40 -12 -42 -4 -39 16 7 30 66 42 102 32 96 -6 -4
-7 2 -3 16 5 15 4 20 -4 16 -17 -11 -13 5 5 18 9 7 14 22 12 35 -3 21 -4 21
-21 -9z m-15 -132 c-7 -7 -12 -8 -12 -2 0 14 12 26 19 19 2 -3 -1 -11 -7 -17z"/>
<path d="M1400 3054 c0 -8 5 -12 10 -9 6 4 8 11 5 16 -9 14 -15 11 -15 -7z"/>
<path d="M735 2910 c-3 -5 -1 -10 4 -10 6 0 11 5 11 10 0 6 -2 10 -4 10 -3 0
-8 -4 -11 -10z"/>
<path d="M1293 2913 c-7 -2 -13 -11 -13 -19 0 -17 -135 -154 -151 -154 -19 0
-169 -131 -169 -147 0 -13 3 -13 15 -3 8 7 22 10 30 6 8 -3 15 -1 15 4 0 6 -7
10 -17 10 -14 0 -14 2 2 20 23 26 184 140 196 140 6 0 7 4 4 10 -3 5 8 18 26
29 18 11 45 40 61 65 27 44 27 50 1 39z"/>
<path d="M698 2889 c-19 -11 -24 -29 -8 -29 5 0 14 9 20 20 12 23 12 23 -12 9z"/>
<path d="M725 2870 c3 -5 8 -10 11 -10 2 0 4 5 4 10 0 6 -5 10 -11 10 -5 0 -7
-4 -4 -10z"/>
<path d="M1307 2852 c-19 -20 -23 -37 -7 -27 10 6 33 45 27 45 -2 0 -11 -8
-20 -18z"/>
<path d="M644 2849 c-3 -6 -4 -13 -1 -15 7 -7 77 7 77 15 0 10 -69 10 -76 0z"/>
<path d="M594 2805 c-10 -8 -14 -15 -8 -15 6 0 17 7 24 15 16 19 9 19 -16 0z"/>
<path d="M655 2810 c-3 -5 -2 -10 4 -10 5 0 13 5 16 10 3 6 2 10 -4 10 -5 0
-13 -4 -16 -10z"/>
<path d="M550 2770 c-9 -6 -10 -10 -3 -10 6 0 15 5 18 10 8 12 4 12 -15 0z"/>
<path d="M2295 2624 c-27 -19 -43 -34 -35 -34 8 0 33 16 55 35 50 43 44 43
-20 -1z"/>
<path d="M3385 2580 c-3 -5 -2 -10 4 -10 5 0 13 5 16 10 3 6 2 10 -4 10 -5 0
-13 -4 -16 -10z"/>
<path d="M873 2526 c-54 -54 -117 -106 -127 -106 -3 0 -25 -19 -48 -42 -25
-23 -33 -36 -20 -29 56 30 122 81 185 143 37 38 72 68 77 68 6 0 10 5 10 10 0
21 -27 5 -77 -44z"/>
<path d="M3356 2543 c-6 -14 -5 -15 5 -6 7 7 10 15 7 18 -3 3 -9 -2 -12 -12z"/>
<path d="M3313 2517 c-4 -7 -25 -21 -46 -32 -21 -11 -46 -27 -55 -35 -9 -9
-33 -26 -52 -39 -19 -14 -47 -36 -62 -51 l-27 -27 24 -11 c20 -9 25 -8 30 8 4
11 12 20 18 20 16 0 205 180 190 180 -7 0 -16 -6 -20 -13z"/>
<path d="M901 2506 c-8 -9 -8 -16 -2 -20 5 -4 12 -2 16 4 3 5 3 10 -2 11 -4 0
1 4 12 9 15 7 16 9 4 9 -9 1 -22 -5 -28 -13z"/>
<path d="M855 2460 c-8 -13 5 -13 25 0 13 8 13 10 -2 10 -9 0 -20 -4 -23 -10z"/>
<path d="M830 2429 c0 -5 5 -7 10 -4 6 3 10 8 10 11 0 2 -4 4 -10 4 -5 0 -10
-5 -10 -11z"/>
<path d="M606 2341 c-17 -19 -17 -20 8 -17 14 1 29 6 34 10 4 4 0 6 -8 4 -8
-1 -14 3 -12 10 3 17 -2 15 -22 -7z"/>
<path d="M602 2302 c-19 -49 -88 -141 -107 -142 -18 -1 -18 -2 -3 -8 17 -7 16
-9 -2 -40 -12 -19 -25 -30 -31 -26 -8 4 -7 9 2 16 8 5 9 8 2 6 -14 -4 -93 -99
-93 -112 0 -6 16 5 35 24 19 18 37 31 40 28 4 -3 -12 -43 -35 -88 -26 -52 -38
-86 -32 -92 6 -6 12 0 16 15 11 44 83 191 115 235 18 24 42 47 54 53 l22 10
-22 -5 -22 -4 19 37 c10 21 32 51 48 69 27 29 31 42 10 42 -5 0 -12 -8 -16
-18z m-142 -232 c0 -5 -5 -10 -11 -10 -5 0 -7 5 -4 10 3 6 8 10 11 10 2 0 4
-4 4 -10z"/>
<path d="M1885 2138 c-7 -28 13 -128 26 -128 4 0 9 11 11 25 3 13 1 22 -3 19
-10 -6 -23 41 -16 58 2 7 1 22 -3 33 -7 18 -8 18 -15 -7z"/>
<path d="M449 2133 c-13 -16 -12 -17 4 -4 9 7 17 15 17 17 0 8 -8 3 -21 -13z"/>
<path d="M1951 2034 c0 -11 3 -14 6 -6 3 7 2 16 -1 19 -3 4 -6 -2 -5 -13z"/>
<path d="M1990 2014 c12 -32 12 -37 0 -29 -6 3 -7 -1 -4 -9 8 -21 11 -20 24 3
11 22 5 47 -15 55 -11 4 -12 0 -5 -20z"/>
<path d="M1946 1992 c-4 -7 -12 -10 -17 -7 -16 11 -10 -4 12 -26 26 -26 31
-22 21 16 -6 19 -11 25 -16 17z"/>
<path d="M1953 1865 c0 -33 2 -45 4 -27 2 18 2 45 0 60 -2 15 -4 0 -4 -33z"/>
<path d="M2001 1904 c0 -11 3 -14 6 -6 3 7 2 16 -1 19 -3 4 -6 -2 -5 -13z"/>
<path d="M2009 1875 c-4 -5 1 -55 11 -110 20 -114 24 -92 7 35 -7 47 -15 81
-18 75z"/>
<path d="M318 1768 c-15 -23 -38 -84 -38 -99 0 -5 5 -9 10 -9 6 0 10 10 10 23
0 12 9 41 20 65 21 46 20 54 -2 20z"/>
<path d="M350 1740 c0 -11 2 -20 4 -20 2 0 6 9 9 20 3 11 1 20 -4 20 -5 0 -9
-9 -9 -20z"/>
<path d="M340 1706 c0 -2 -7 -33 -16 -68 -15 -62 -24 -89 -49 -138 -7 -14 -16
-52 -20 -85 -4 -33 -11 -68 -16 -77 -6 -11 -6 -18 0 -18 12 0 21 25 27 78 6
48 32 122 43 122 4 0 7 8 8 18 0 9 4 28 8 42 4 14 7 33 7 43 -1 9 2 16 6 13 4
-2 8 13 9 35 0 21 -1 39 -3 39 -2 0 -4 -2 -4 -4z"/>
<path d="M2047 1555 c3 -49 7 -92 9 -94 7 -8 3 104 -6 144 -5 27 -6 11 -3 -50z"/>
<path d="M2010 1591 c0 -6 4 -13 10 -16 6 -3 7 1 4 9 -7 18 -14 21 -14 7z"/>
<path d="M2690 1559 c0 -5 5 -7 10 -4 6 3 10 8 10 11 0 2 -4 4 -10 4 -5 0 -10
-5 -10 -11z"/>
<path d="M2720 1540 c0 -5 5 -10 10 -10 6 0 10 5 10 10 0 6 -4 10 -10 10 -5 0
-10 -4 -10 -10z"/>
<path d="M2800 1542 c0 -5 -16 -16 -36 -25 -19 -10 -32 -22 -29 -27 3 -6 1
-10 -4 -10 -6 0 -11 -7 -11 -15 0 -13 4 -14 20 -5 11 6 18 15 15 21 -4 5 4 9
15 9 13 0 24 8 27 20 3 11 12 20 20 20 8 0 11 5 8 10 -7 12 -25 13 -25 2z"/>
<path d="M258 1305 c-9 -12 -20 -35 -23 -51 -5 -21 1 -15 19 20 29 54 30 66 4
31z"/>
<path d="M2071 1318 c0 -7 4 -22 9 -33 7 -17 9 -15 9 13 1 17 -3 32 -9 32 -5
0 -10 -6 -9 -12z"/>
<path d="M2765 1048 c-16 -21 -35 -38 -42 -38 -7 0 -13 -5 -13 -11 0 -5 5 -7
12 -3 8 5 9 2 5 -9 -3 -10 -2 -17 3 -17 6 0 13 -1 17 -2 3 -2 7 7 8 20 1 12
19 40 40 62 31 32 34 39 18 37 -11 0 -33 -18 -48 -39z"/>
<path d="M2161 921 c-1 -27 5 -69 13 -93 17 -50 36 -179 28 -192 -3 -5 0 -6 5
-3 6 4 13 -3 16 -15 4 -12 8 -20 11 -17 3 3 1 21 -4 40 -29 111 -43 192 -46
254 -3 80 -20 100 -23 26z"/>
<path d="M2171 705 c0 -11 4 -27 9 -35 9 -13 10 -13 9 0 0 8 -4 24 -9 35 l-9
20 0 -20z"/>
<path d="M2233 570 c-3 -11 -9 -17 -14 -14 -5 3 -9 0 -9 -5 0 -6 5 -11 11 -11
8 0 10 -30 5 -107 -4 -60 -8 -121 -8 -136 0 -16 -4 -24 -8 -18 -4 7 -11 1 -18
-14 -7 -15 -10 -30 -7 -35 3 -4 -2 -24 -10 -44 -18 -42 -19 -56 -4 -56 5 0 8
4 4 9 -3 5 6 33 19 63 30 64 34 39 6 -34 -11 -29 -20 -61 -20 -70 0 -10 -15
-34 -32 -55 -18 -21 -23 -29 -10 -19 19 17 22 17 22 3 0 -10 5 -17 10 -17 6 0
10 10 10 23 0 13 6 32 14 43 8 10 12 29 10 40 -6 23 31 115 37 95 2 -6 4 27 3
74 -1 52 3 82 9 78 5 -3 7 8 3 28 -3 19 -3 28 0 22 10 -23 26 -14 22 12 -4 16
-1 25 8 25 9 0 10 8 5 28 -4 15 -10 25 -14 22 -12 -9 -39 41 -34 66 5 29 -3
32 -10 4z m14 -102 c-3 -8 -6 -5 -6 6 -1 11 2 17 5 13 3 -3 4 -12 1 -19z"/>
<path d="M920 489 c-17 -13 -18 -17 -5 -10 33 17 51 31 40 31 -5 0 -21 -10
-35 -21z"/>
<path d="M1060 449 c0 -5 5 -7 10 -4 6 3 10 8 10 11 0 2 -4 4 -10 4 -5 0 -10
-5 -10 -11z"/>
<path d="M1371 417 c-13 -21 -12 -21 5 -5 10 10 16 20 13 22 -3 3 -11 -5 -18
-17z"/>
<path d="M1415 394 c-9 -14 -14 -28 -12 -31 3 -3 13 9 22 26 19 38 14 41 -10
5z"/>
<path d="M1706 351 c-4 -5 3 -7 14 -4 23 6 26 13 6 13 -8 0 -17 -4 -20 -9z"/>
<path d="M2228 183 c-2 -5 -5 -24 -7 -43 l-2 -35 16 23 c10 13 14 26 11 29 -3
3 -1 12 5 20 9 10 8 13 -4 13 -9 0 -17 -3 -19 -7z"/>
<path d="M2206 35 c-3 -8 -1 -15 4 -15 6 0 10 7 10 15 0 8 -2 15 -4 15 -2 0
-6 -7 -10 -15z"/>
</g>
</svg>
